<?xml version="1.0" encoding="UTF-8" standalone="no"?>
<!DOCTYPE svg PUBLIC "-//W3C//DTD SVG 1.1//EN"
 "http://www.w3.org/Graphics/SVG/1.1/DTD/svg11.dtd">
<!-- Generated by graphviz version 2.43.0 (0)
 -->
<!-- Title: control Pages: 1 -->
<svg width="1026pt" height="957pt"
 viewBox="0.00 0.00 1026.29 957.00" xmlns="http://www.w3.org/2000/svg" xmlns:xlink="http://www.w3.org/1999/xlink">
<g id="graph0" class="graph" transform="scale(1 1) rotate(0) translate(18 939)">
<title>control</title>
<polygon fill="white" stroke="transparent" points="-18,18 -18,-939 1008.29,-939 1008.29,18 -18,18"/>
<!-- start -->
<g id="node1" class="node">
<title>start</title>
<path fill="#eef6fc" stroke="#5182a5" d="M296.29,-921C296.29,-921 130.29,-921 130.29,-921 124.29,-921 118.29,-915 118.29,-909 118.29,-909 118.29,-897 118.29,-897 118.29,-891 124.29,-885 130.29,-885 130.29,-885 296.29,-885 296.29,-885 302.29,-885 308.29,-891 308.29,-897 308.29,-897 308.29,-909 308.29,-909 308.29,-915 302.29,-921 296.29,-921"/>
<text text-anchor="middle" x="213.29" y="-899.9" font-family="DejaVu Sans" font-size="12.00">on_timer() / 50 ms wall timer</text>
</g>
<!-- guard -->
<g id="node2" class="node">
<title>guard</title>
<path fill="#eef6fc" stroke="#5182a5" d="M201.33,-856.99C201.33,-856.99 12.17,-841.01 12.17,-841.01 6.19,-840.51 6.19,-839.49 12.17,-838.99 12.17,-838.99 201.33,-823.01 201.33,-823.01 207.31,-822.51 219.27,-822.51 225.25,-823.01 225.25,-823.01 414.41,-838.99 414.41,-838.99 420.39,-839.49 420.39,-840.51 414.41,-841.01 414.41,-841.01 225.25,-856.99 225.25,-856.99 219.27,-857.49 207.31,-857.49 201.33,-856.99"/>
<text text-anchor="middle" x="213.29" y="-836.9" font-family="DejaVu Sans" font-size="12.00">Fault, feedback and node&#45;time checks</text>
</g>
<!-- start&#45;&gt;guard -->
<g id="edge1" class="edge">
<title>start&#45;&gt;guard</title>
<path fill="none" stroke="#526674" d="M213.29,-884.68C213.29,-879.62 213.29,-873.95 213.29,-868.42"/>
<polygon fill="#526674" stroke="#526674" points="216.79,-868.15 213.29,-858.15 209.79,-868.15 216.79,-868.15"/>
</g>
<!-- stop -->
<g id="node3" class="node">
<title>stop</title>
<path fill="#fff1dc" stroke="#5182a5" d="M287.79,-104.5C287.79,-104.5 212.79,-104.5 212.79,-104.5 206.79,-104.5 200.79,-98.5 200.79,-92.5 200.79,-92.5 200.79,-80.5 200.79,-80.5 200.79,-74.5 206.79,-68.5 212.79,-68.5 212.79,-68.5 287.79,-68.5 287.79,-68.5 293.79,-68.5 299.79,-74.5 299.79,-80.5 299.79,-80.5 299.79,-92.5 299.79,-92.5 299.79,-98.5 293.79,-104.5 287.79,-104.5"/>
<text text-anchor="middle" x="250.29" y="-89.9" font-family="DejaVu Sans" font-size="12.00">publish_stop()</text>
<text text-anchor="middle" x="250.29" y="-76.9" font-family="DejaVu Sans" font-size="12.00">End this tick</text>
</g>
<!-- guard&#45;&gt;stop -->
<g id="edge2" class="edge">
<title>guard&#45;&gt;stop</title>
<path fill="none" stroke="#526674" d="M207.38,-822.23C201.8,-804.88 194.29,-776.89 194.29,-752 194.29,-752 194.29,-752 194.29,-182.5 194.29,-155.94 210.74,-130.26 225.81,-112.31"/>
<polygon fill="#526674" stroke="#526674" points="228.59,-114.45 232.57,-104.64 223.34,-109.83 228.59,-114.45"/>
<text text-anchor="middle" x="213.29" y="-487" font-family="DejaVu Sans" font-size="10.00">blocked</text>
</g>
<!-- align -->
<g id="node4" class="node">
<title>align</title>
<path fill="#eef6fc" stroke="#5182a5" d="M424.45,-783.02C424.45,-783.02 245.13,-752.98 245.13,-752.98 239.21,-751.99 239.21,-750.01 245.13,-749.02 245.13,-749.02 424.45,-718.98 424.45,-718.98 430.37,-717.99 442.21,-717.99 448.13,-718.98 448.13,-718.98 627.45,-749.02 627.45,-749.02 633.37,-750.01 633.37,-751.99 627.45,-752.98 627.45,-752.98 448.13,-783.02 448.13,-783.02 442.21,-784.01 430.37,-784.01 424.45,-783.02"/>
<text text-anchor="middle" x="436.29" y="-754.4" font-family="DejaVu Sans" font-size="12.00">Initial alignment gate (scene 2)</text>
<text text-anchor="middle" x="436.29" y="-741.4" font-family="DejaVu Sans" font-size="12.00">Rotate / stop / verify standstill</text>
</g>
<!-- guard&#45;&gt;align -->
<g id="edge3" class="edge">
<title>guard&#45;&gt;align</title>
<path fill="none" stroke="#526674" d="M249.12,-825.02C280.9,-812.62 328.21,-794.17 367.31,-778.91"/>
<polygon fill="#526674" stroke="#526674" points="369.02,-782 377.06,-775.11 366.47,-775.48 369.02,-782"/>
<text text-anchor="middle" x="339.79" y="-801" font-family="DejaVu Sans" font-size="10.00">continue</text>
</g>
<!-- rotate -->
<g id="node6" class="node">
<title>rotate</title>
<path fill="#eef6fc" stroke="#5182a5" d="M819.29,-366C819.29,-366 661.29,-366 661.29,-366 655.29,-366 649.29,-360 649.29,-354 649.29,-354 649.29,-342 649.29,-342 649.29,-336 655.29,-330 661.29,-330 661.29,-330 819.29,-330 819.29,-330 825.29,-330 831.29,-336 831.29,-342 831.29,-342 831.29,-354 831.29,-354 831.29,-360 825.29,-366 819.29,-366"/>
<text text-anchor="middle" x="740.29" y="-351.4" font-family="DejaVu Sans" font-size="12.00">Publish rotation only or stop</text>
<text text-anchor="middle" x="740.29" y="-338.4" font-family="DejaVu Sans" font-size="12.00">End this tick</text>
</g>
<!-- align&#45;&gt;rotate -->
<g id="edge4" class="edge">
<title>align&#45;&gt;rotate</title>
<path fill="none" stroke="#526674" d="M560.68,-737.71C646.16,-725.69 744.29,-703.15 744.29,-663 744.29,-663 744.29,-663 744.29,-436 744.29,-416.15 743.24,-393.79 742.21,-376.71"/>
<polygon fill="#526674" stroke="#526674" points="745.68,-376.08 741.56,-366.32 738.7,-376.52 745.68,-376.08"/>
<text text-anchor="middle" x="764.29" y="-560" font-family="DejaVu Sans" font-size="10.00">pending</text>
</g>
<!-- target -->
<g id="node7" class="node">
<title>target</title>
<path fill="#eef6fc" stroke="#5182a5" d="M546.79,-680C546.79,-680 325.79,-680 325.79,-680 319.79,-680 313.79,-674 313.79,-668 313.79,-668 313.79,-656 313.79,-656 313.79,-650 319.79,-644 325.79,-644 325.79,-644 546.79,-644 546.79,-644 552.79,-644 558.79,-650 558.79,-656 558.79,-656 558.79,-668 558.79,-668 558.79,-674 552.79,-680 546.79,-680"/>
<text text-anchor="middle" x="436.29" y="-665.4" font-family="DejaVu Sans" font-size="12.00">Initialize target if needed</text>
<text text-anchor="middle" x="436.29" y="-652.4" font-family="DejaVu Sans" font-size="12.00">Scene 2: configured A first, then route</text>
</g>
<!-- align&#45;&gt;target -->
<g id="edge5" class="edge">
<title>align&#45;&gt;target</title>
<path fill="none" stroke="#526674" d="M436.29,-716.61C436.29,-707.85 436.29,-698.51 436.29,-690.12"/>
<polygon fill="#526674" stroke="#526674" points="439.79,-690.12 436.29,-680.12 432.79,-690.12 439.79,-690.12"/>
<text text-anchor="middle" x="482.79" y="-696" font-family="DejaVu Sans" font-size="10.00">complete / scene 1</text>
</g>
<!-- recover -->
<g id="node5" class="node">
<title>recover</title>
<path fill="#eef6fc" stroke="#5182a5" d="M485.44,-469.11C485.44,-469.11 296.14,-438.89 296.14,-438.89 290.22,-437.95 290.22,-436.05 296.14,-435.11 296.14,-435.11 485.44,-404.89 485.44,-404.89 491.37,-403.95 503.22,-403.95 509.14,-404.89 509.14,-404.89 698.44,-435.11 698.44,-435.11 704.37,-436.05 704.37,-437.95 698.44,-438.89 698.44,-438.89 509.14,-469.11 509.14,-469.11 503.22,-470.05 491.37,-470.05 485.44,-469.11"/>
<text text-anchor="middle" x="497.29" y="-440.4" font-family="DejaVu Sans" font-size="12.00">Heading recovery (scene 2)</text>
<text text-anchor="middle" x="497.29" y="-427.4" font-family="DejaVu Sans" font-size="12.00">Revoke drifted dwell / rotate only</text>
</g>
<!-- recover&#45;&gt;rotate -->
<g id="edge10" class="edge">
<title>recover&#45;&gt;rotate</title>
<path fill="none" stroke="#526674" d="M556.39,-412.28C583.36,-401.7 615.79,-389.33 645.29,-379 654.72,-375.7 664.73,-372.36 674.57,-369.17"/>
<polygon fill="#526674" stroke="#526674" points="675.89,-372.42 684.34,-366.04 673.75,-365.76 675.89,-372.42"/>
<text text-anchor="middle" x="686.29" y="-382" font-family="DejaVu Sans" font-size="10.00">rotation required</text>
</g>
<!-- done -->
<g id="node10" class="node">
<title>done</title>
<path fill="#eef6fc" stroke="#5182a5" d="M485.41,-364.29C485.41,-364.29 383.94,-349.71 383.94,-349.71 378,-348.85 378,-347.15 383.94,-346.29 383.94,-346.29 485.41,-331.71 485.41,-331.71 491.35,-330.85 503.23,-330.85 509.17,-331.71 509.17,-331.71 610.64,-346.29 610.64,-346.29 616.58,-347.15 616.58,-348.85 610.64,-349.71 610.64,-349.71 509.17,-364.29 509.17,-364.29 503.23,-365.15 491.35,-365.15 485.41,-364.29"/>
<text text-anchor="middle" x="497.29" y="-344.9" font-family="DejaVu Sans" font-size="12.00">Segment completed?</text>
</g>
<!-- recover&#45;&gt;done -->
<g id="edge11" class="edge">
<title>recover&#45;&gt;done</title>
<path fill="none" stroke="#526674" d="M497.29,-402.61C497.29,-393.85 497.29,-384.51 497.29,-376.12"/>
<polygon fill="#526674" stroke="#526674" points="500.79,-376.12 497.29,-366.12 493.79,-376.12 500.79,-376.12"/>
<text text-anchor="middle" x="518.79" y="-382" font-family="DejaVu Sans" font-size="10.00">continue</text>
</g>
<!-- valid -->
<g id="node8" class="node">
<title>valid</title>
<path fill="#eef6fc" stroke="#5182a5" d="M424.55,-614.5C424.55,-614.5 363.64,-601.5 363.64,-601.5 357.77,-600.25 357.77,-597.75 363.64,-596.5 363.64,-596.5 424.55,-583.5 424.55,-583.5 430.42,-582.25 442.16,-582.25 448.03,-583.5 448.03,-583.5 508.94,-596.5 508.94,-596.5 514.81,-597.75 514.81,-600.25 508.94,-601.5 508.94,-601.5 448.03,-614.5 448.03,-614.5 442.16,-615.75 430.42,-615.75 424.55,-614.5"/>
<text text-anchor="middle" x="436.29" y="-595.9" font-family="DejaVu Sans" font-size="12.00">Target ready?</text>
</g>
<!-- target&#45;&gt;valid -->
<g id="edge6" class="edge">
<title>target&#45;&gt;valid</title>
<path fill="none" stroke="#526674" d="M436.29,-643.68C436.29,-638.62 436.29,-632.95 436.29,-627.42"/>
<polygon fill="#526674" stroke="#526674" points="439.79,-627.15 436.29,-617.15 432.79,-627.15 439.79,-627.15"/>
</g>
<!-- valid&#45;&gt;stop -->
<g id="edge7" class="edge">
<title>valid&#45;&gt;stop</title>
<path fill="none" stroke="#526674" d="M392.21,-590.26C337.21,-579.32 250.29,-557.24 250.29,-527 250.29,-527 250.29,-527 250.29,-182.5 250.29,-159.64 250.29,-133.7 250.29,-114.7"/>
<polygon fill="#526674" stroke="#526674" points="253.79,-114.66 250.29,-104.66 246.79,-114.66 253.79,-114.66"/>
<text text-anchor="middle" x="256.79" y="-345.5" font-family="DejaVu Sans" font-size="10.00">no</text>
</g>
<!-- errors -->
<g id="node9" class="node">
<title>errors</title>
<path fill="#eef6fc" stroke="#5182a5" d="M540.29,-544C540.29,-544 380.29,-544 380.29,-544 374.29,-544 368.29,-538 368.29,-532 368.29,-532 368.29,-520 368.29,-520 368.29,-514 374.29,-508 380.29,-508 380.29,-508 540.29,-508 540.29,-508 546.29,-508 552.29,-514 552.29,-520 552.29,-520 552.29,-532 552.29,-532 552.29,-538 546.29,-544 540.29,-544"/>
<text text-anchor="middle" x="460.29" y="-522.9" font-family="DejaVu Sans" font-size="12.00">Read pose; calculate ex / ey</text>
</g>
<!-- valid&#45;&gt;errors -->
<g id="edge8" class="edge">
<title>valid&#45;&gt;errors</title>
<path fill="none" stroke="#526674" d="M441.74,-581.89C444.57,-573.51 448.11,-563.05 451.33,-553.51"/>
<polygon fill="#526674" stroke="#526674" points="454.64,-554.63 454.53,-544.04 448.01,-552.39 454.64,-554.63"/>
<text text-anchor="middle" x="458.29" y="-560" font-family="DejaVu Sans" font-size="10.00">yes</text>
</g>
<!-- errors&#45;&gt;recover -->
<g id="edge9" class="edge">
<title>errors&#45;&gt;recover</title>
<path fill="none" stroke="#526674" d="M467.6,-507.81C471.18,-499.39 475.65,-488.87 480.04,-478.57"/>
<polygon fill="#526674" stroke="#526674" points="483.31,-479.81 484,-469.24 476.87,-477.07 483.31,-479.81"/>
</g>
<!-- dwell -->
<g id="node11" class="node">
<title>dwell</title>
<path fill="#e7f3e6" stroke="#5182a5" d="M846.29,-293C846.29,-293 658.29,-293 658.29,-293 652.29,-293 646.29,-287 646.29,-281 646.29,-281 646.29,-269 646.29,-269 646.29,-263 652.29,-257 658.29,-257 658.29,-257 846.29,-257 846.29,-257 852.29,-257 858.29,-263 858.29,-269 858.29,-269 858.29,-281 858.29,-281 858.29,-287 852.29,-293 846.29,-293"/>
<text text-anchor="middle" x="752.29" y="-278.4" font-family="DejaVu Sans" font-size="12.00">handle_completed_segment()</text>
<text text-anchor="middle" x="752.29" y="-265.4" font-family="DejaVu Sans" font-size="12.00">Stop; wait; advance or shutdown</text>
</g>
<!-- done&#45;&gt;dwell -->
<g id="edge12" class="edge">
<title>done&#45;&gt;dwell</title>
<path fill="none" stroke="#526674" d="M537.7,-335.75C576.24,-325.02 635.13,-308.62 681.48,-295.72"/>
<polygon fill="#526674" stroke="#526674" points="682.47,-299.07 691.16,-293.02 680.59,-292.33 682.47,-299.07"/>
<text text-anchor="middle" x="648.29" y="-309" font-family="DejaVu Sans" font-size="10.00">yes</text>
</g>
<!-- near -->
<g id="node12" class="node">
<title>near</title>
<path fill="#eef6fc" stroke="#5182a5" d="M472.39,-291.47C472.39,-291.47 355.87,-276.53 355.87,-276.53 349.92,-275.76 349.92,-274.24 355.87,-273.47 355.87,-273.47 472.39,-258.53 472.39,-258.53 478.34,-257.76 490.24,-257.76 496.19,-258.53 496.19,-258.53 612.71,-273.47 612.71,-273.47 618.66,-274.24 618.66,-275.76 612.71,-276.53 612.71,-276.53 496.19,-291.47 496.19,-291.47 490.24,-292.24 478.34,-292.24 472.39,-291.47"/>
<text text-anchor="middle" x="484.29" y="-271.9" font-family="DejaVu Sans" font-size="12.00">Position error &lt; 0.01 m?</text>
</g>
<!-- done&#45;&gt;near -->
<g id="edge13" class="edge">
<title>done&#45;&gt;near</title>
<path fill="none" stroke="#526674" d="M494.21,-330.17C492.7,-321.95 490.86,-311.86 489.16,-302.62"/>
<polygon fill="#526674" stroke="#526674" points="492.59,-301.91 487.35,-292.71 485.71,-303.17 492.59,-301.91"/>
<text text-anchor="middle" x="497.79" y="-309" font-family="DejaVu Sans" font-size="10.00">no</text>
</g>
<!-- settle -->
<g id="node13" class="node">
<title>settle</title>
<path fill="#e7f3e6" stroke="#5182a5" d="M978.29,-220C978.29,-220 702.29,-220 702.29,-220 696.29,-220 690.29,-214 690.29,-208 690.29,-208 690.29,-159 690.29,-159 690.29,-153 696.29,-147 702.29,-147 702.29,-147 978.29,-147 978.29,-147 984.29,-147 990.29,-153 990.29,-159 990.29,-159 990.29,-208 990.29,-208 990.29,-214 984.29,-220 978.29,-220"/>
<text text-anchor="middle" x="840.29" y="-206.4" font-family="DejaVu Sans" font-size="12.00">Stop; reset PID; check_completion()</text>
<text text-anchor="middle" x="840.29" y="-193.4" font-family="DejaVu Sans" font-size="12.00">Verify continuous standstill</text>
<text text-anchor="middle" x="840.29" y="-180.4" font-family="DejaVu Sans" font-size="12.00">Initial A: mark start reached; next tick targets B</text>
<text text-anchor="middle" x="840.29" y="-167.4" font-family="DejaVu Sans" font-size="12.00">Route: mark completed for dwell</text>
<text text-anchor="middle" x="840.29" y="-154.4" font-family="DejaVu Sans" font-size="12.00">End this tick</text>
</g>
<!-- near&#45;&gt;settle -->
<g id="edge14" class="edge">
<title>near&#45;&gt;settle</title>
<path fill="none" stroke="#526674" d="M529.38,-262.66C569.7,-252.53 631.17,-237.07 688.84,-222.57"/>
<polygon fill="#526674" stroke="#526674" points="689.96,-225.9 698.81,-220.07 688.25,-219.11 689.96,-225.9"/>
<text text-anchor="middle" x="649.29" y="-236" font-family="DejaVu Sans" font-size="10.00">yes</text>
</g>
<!-- timing -->
<g id="node14" class="node">
<title>timing</title>
<path fill="#eef6fc" stroke="#5182a5" d="M464.34,-200.38C464.34,-200.38 296.69,-184.62 296.69,-184.62 290.71,-184.06 290.71,-182.94 296.69,-182.38 296.69,-182.38 464.34,-166.62 464.34,-166.62 470.32,-166.06 482.26,-166.06 488.24,-166.62 488.24,-166.62 655.89,-182.38 655.89,-182.38 661.87,-182.94 661.87,-184.06 655.89,-184.62 655.89,-184.62 488.24,-200.38 488.24,-200.38 482.26,-200.94 470.32,-200.94 464.34,-200.38"/>
<text text-anchor="middle" x="476.29" y="-180.4" font-family="DejaVu Sans" font-size="12.00">Clear settling; handle_pid_timing()</text>
</g>
<!-- near&#45;&gt;timing -->
<g id="edge15" class="edge">
<title>near&#45;&gt;timing</title>
<path fill="none" stroke="#526674" d="M482.79,-257.17C481.64,-244.37 480.04,-226.51 478.72,-211.69"/>
<polygon fill="#526674" stroke="#526674" points="482.19,-211.21 477.82,-201.56 475.22,-211.84 482.19,-211.21"/>
<text text-anchor="middle" x="487.79" y="-236" font-family="DejaVu Sans" font-size="10.00">no</text>
</g>
<!-- timing&#45;&gt;stop -->
<g id="edge16" class="edge">
<title>timing&#45;&gt;stop</title>
<path fill="none" stroke="#526674" d="M442.94,-168.48C405.31,-152.66 343.69,-126.76 300.29,-108.52"/>
<polygon fill="#526674" stroke="#526674" points="301.62,-105.28 291.05,-104.63 298.91,-111.73 301.62,-105.28"/>
<text text-anchor="middle" x="405.79" y="-126" font-family="DejaVu Sans" font-size="10.00">initialize / invalid dt</text>
</g>
<!-- compute -->
<g id="node15" class="node">
<title>compute</title>
<path fill="#eef6fc" stroke="#5182a5" d="M615.29,-110C615.29,-110 337.29,-110 337.29,-110 331.29,-110 325.29,-104 325.29,-98 325.29,-98 325.29,-75 325.29,-75 325.29,-69 331.29,-63 337.29,-63 337.29,-63 615.29,-63 615.29,-63 621.29,-63 627.29,-69 627.29,-75 627.29,-75 627.29,-98 627.29,-98 627.29,-104 621.29,-110 615.29,-110"/>
<text text-anchor="middle" x="476.29" y="-96.4" font-family="DejaVu Sans" font-size="12.00">compute_and_publish_command(data)</text>
<text text-anchor="middle" x="476.29" y="-83.4" font-family="DejaVu Sans" font-size="12.00">PID &#45;&gt; speed limit &#45;&gt; acceleration limit</text>
<text text-anchor="middle" x="476.29" y="-70.4" font-family="DejaVu Sans" font-size="12.00">&#45;&gt; body conversion + yaw correction &#45;&gt; publish</text>
</g>
<!-- timing&#45;&gt;compute -->
<g id="edge17" class="edge">
<title>timing&#45;&gt;compute</title>
<path fill="none" stroke="#526674" d="M476.29,-165.08C476.29,-152.66 476.29,-135.59 476.29,-120.62"/>
<polygon fill="#526674" stroke="#526674" points="479.79,-120.19 476.29,-110.19 472.79,-120.19 479.79,-120.19"/>
<text text-anchor="middle" x="494.79" y="-126" font-family="DejaVu Sans" font-size="10.00">valid dt</text>
</g>
<!-- log -->
<g id="node16" class="node">
<title>log</title>
<path fill="#eef6fc" stroke="#5182a5" d="M572.29,-36C572.29,-36 380.29,-36 380.29,-36 374.29,-36 368.29,-30 368.29,-24 368.29,-24 368.29,-12 368.29,-12 368.29,-6 374.29,0 380.29,0 380.29,0 572.29,0 572.29,0 578.29,0 584.29,-6 584.29,-12 584.29,-12 584.29,-24 584.29,-24 584.29,-30 578.29,-36 572.29,-36"/>
<text text-anchor="middle" x="476.29" y="-21.4" font-family="DejaVu Sans" font-size="12.00">log_control_state(data) when due</text>
<text text-anchor="middle" x="476.29" y="-8.4" font-family="DejaVu Sans" font-size="12.00">End this tick</text>
</g>
<!-- compute&#45;&gt;log -->
<g id="edge18" class="edge">
<title>compute&#45;&gt;log</title>
<path fill="none" stroke="#526674" d="M476.29,-62.99C476.29,-57.66 476.29,-51.92 476.29,-46.4"/>
<polygon fill="#526674" stroke="#526674" points="479.79,-46.23 476.29,-36.23 472.79,-46.23 479.79,-46.23"/>
</g>
</g>
</svg>
