<?xml version="1.0" encoding="UTF-8" standalone="no"?>
<!DOCTYPE svg PUBLIC "-//W3C//DTD SVG 1.1//EN"
 "http://www.w3.org/Graphics/SVG/1.1/DTD/svg11.dtd">
<!-- Generated by graphviz version 2.43.0 (0)
 -->
<!-- Title: control Pages: 1 -->
<svg width="1697pt" height="1454pt"
 viewBox="0.00 0.00 1697.29 1454.00" xmlns="http://www.w3.org/2000/svg" xmlns:xlink="http://www.w3.org/1999/xlink">
<g id="graph0" class="graph" transform="scale(1 1) rotate(0) translate(18 1436)">
<title>control</title>
<polygon fill="white" stroke="transparent" points="-18,18 -18,-1436 1679.29,-1436 1679.29,18 -18,18"/>
<!-- start -->
<g id="node1" class="node">
<title>start</title>
<path fill="#eef6fc" stroke="#5182a5" d="M1531,-1418C1531,-1418 1365,-1418 1365,-1418 1359,-1418 1353,-1412 1353,-1406 1353,-1406 1353,-1394 1353,-1394 1353,-1388 1359,-1382 1365,-1382 1365,-1382 1531,-1382 1531,-1382 1537,-1382 1543,-1388 1543,-1394 1543,-1394 1543,-1406 1543,-1406 1543,-1412 1537,-1418 1531,-1418"/>
<text text-anchor="middle" x="1448" y="-1396.9" font-family="DejaVu Sans" font-size="12.00">on_timer() / 50 ms wall timer</text>
</g>
<!-- guard -->
<g id="node2" class="node">
<title>guard</title>
<path fill="#eef6fc" stroke="#5182a5" d="M1436.04,-1353.99C1436.04,-1353.99 1246.88,-1338.01 1246.88,-1338.01 1240.9,-1337.51 1240.9,-1336.49 1246.88,-1335.99 1246.88,-1335.99 1436.04,-1320.01 1436.04,-1320.01 1442.02,-1319.51 1453.98,-1319.51 1459.96,-1320.01 1459.96,-1320.01 1649.12,-1335.99 1649.12,-1335.99 1655.1,-1336.49 1655.1,-1337.51 1649.12,-1338.01 1649.12,-1338.01 1459.96,-1353.99 1459.96,-1353.99 1453.98,-1354.49 1442.02,-1354.49 1436.04,-1353.99"/>
<text text-anchor="middle" x="1448" y="-1333.9" font-family="DejaVu Sans" font-size="12.00">Fault, feedback and node&#45;time checks</text>
</g>
<!-- start&#45;&gt;guard -->
<g id="edge1" class="edge">
<title>start&#45;&gt;guard</title>
<path fill="none" stroke="#526674" d="M1448,-1381.68C1448,-1376.62 1448,-1370.95 1448,-1365.42"/>
<polygon fill="#526674" stroke="#526674" points="1451.5,-1365.15 1448,-1355.15 1444.5,-1365.15 1451.5,-1365.15"/>
</g>
<!-- stop -->
<g id="node3" class="node">
<title>stop</title>
<path fill="#fff1dc" stroke="#5182a5" d="M1414.5,-104.5C1414.5,-104.5 1339.5,-104.5 1339.5,-104.5 1333.5,-104.5 1327.5,-98.5 1327.5,-92.5 1327.5,-92.5 1327.5,-80.5 1327.5,-80.5 1327.5,-74.5 1333.5,-68.5 1339.5,-68.5 1339.5,-68.5 1414.5,-68.5 1414.5,-68.5 1420.5,-68.5 1426.5,-74.5 1426.5,-80.5 1426.5,-80.5 1426.5,-92.5 1426.5,-92.5 1426.5,-98.5 1420.5,-104.5 1414.5,-104.5"/>
<text text-anchor="middle" x="1377" y="-89.9" font-family="DejaVu Sans" font-size="12.00">publish_stop()</text>
<text text-anchor="middle" x="1377" y="-76.9" font-family="DejaVu Sans" font-size="12.00">End this tick</text>
</g>
<!-- guard&#45;&gt;stop -->
<g id="edge2" class="edge">
<title>guard&#45;&gt;stop</title>
<path fill="none" stroke="#526674" d="M1501.31,-1323.44C1537.94,-1311.27 1580,-1288.66 1580,-1249 1580,-1249 1580,-1249 1580,-176 1580,-112.94 1496.68,-94.36 1436.8,-89.14"/>
<polygon fill="#526674" stroke="#526674" points="1436.9,-85.64 1426.66,-88.37 1436.36,-92.62 1436.9,-85.64"/>
<text text-anchor="middle" x="1599" y="-679" font-family="DejaVu Sans" font-size="10.00">blocked</text>
</g>
<!-- scan -->
<g id="node17" class="node">
<title>scan</title>
<path fill="#eef6fc" stroke="#5182a5" d="M1304.13,-1280.25C1304.13,-1280.25 1097.87,-1249.75 1097.87,-1249.75 1091.94,-1248.88 1091.94,-1247.12 1097.87,-1246.25 1097.87,-1246.25 1304.13,-1215.75 1304.13,-1215.75 1310.06,-1214.88 1321.94,-1214.88 1327.87,-1215.75 1327.87,-1215.75 1534.13,-1246.25 1534.13,-1246.25 1540.06,-1247.12 1540.06,-1248.88 1534.13,-1249.75 1534.13,-1249.75 1327.87,-1280.25 1327.87,-1280.25 1321.94,-1281.12 1310.06,-1281.12 1304.13,-1280.25"/>
<text text-anchor="middle" x="1316" y="-1251.4" font-family="DejaVu Sans" font-size="12.00">Preparation guard: scan / TF / travel</text>
<text text-anchor="middle" x="1316" y="-1238.4" font-family="DejaVu Sans" font-size="12.00">Stage deadline + total deadline</text>
</g>
<!-- guard&#45;&gt;scan -->
<g id="edge3" class="edge">
<title>guard&#45;&gt;scan</title>
<path fill="none" stroke="#526674" d="M1425.01,-1320.85C1408.66,-1310.07 1386.07,-1295.18 1365.69,-1281.75"/>
<polygon fill="#526674" stroke="#526674" points="1367.39,-1278.68 1357.12,-1276.1 1363.54,-1284.52 1367.39,-1278.68"/>
<text text-anchor="middle" x="1422.5" y="-1298" font-family="DejaVu Sans" font-size="10.00">continue</text>
</g>
<!-- align -->
<g id="node4" class="node">
<title>align</title>
<path fill="#eef6fc" stroke="#5182a5" d="M368.21,-1174.77C368.21,-1174.77 143.79,-1132.23 143.79,-1132.23 137.9,-1131.12 137.9,-1128.88 143.79,-1127.77 143.79,-1127.77 368.21,-1085.23 368.21,-1085.23 374.1,-1084.12 385.9,-1084.12 391.79,-1085.23 391.79,-1085.23 616.21,-1127.77 616.21,-1127.77 622.1,-1128.88 622.1,-1131.12 616.21,-1132.23 616.21,-1132.23 391.79,-1174.77 391.79,-1174.77 385.9,-1175.88 374.1,-1175.88 368.21,-1174.77"/>
<text text-anchor="middle" x="380" y="-1139.9" font-family="DejaVu Sans" font-size="12.00">Initial alignment gate (scene 2)</text>
<text text-anchor="middle" x="380" y="-1126.9" font-family="DejaVu Sans" font-size="12.00">Stable right&#45;wall fit / rotate parallel</text>
<text text-anchor="middle" x="380" y="-1113.9" font-family="DejaVu Sans" font-size="12.00">Stop; capture odom heading reference</text>
</g>
<!-- rotate -->
<g id="node6" class="node">
<title>rotate</title>
<path fill="#eef6fc" stroke="#5182a5" d="M198,-364C198,-364 12,-364 12,-364 6,-364 0,-358 0,-352 0,-352 0,-340 0,-340 0,-334 6,-328 12,-328 12,-328 198,-328 198,-328 204,-328 210,-334 210,-340 210,-340 210,-352 210,-352 210,-358 204,-364 198,-364"/>
<text text-anchor="middle" x="105" y="-349.4" font-family="DejaVu Sans" font-size="12.00">Publish initial adjustment or stop</text>
<text text-anchor="middle" x="105" y="-336.4" font-family="DejaVu Sans" font-size="12.00">End this tick</text>
</g>
<!-- align&#45;&gt;rotate -->
<g id="edge6" class="edge">
<title>align&#45;&gt;rotate</title>
<path fill="none" stroke="#526674" d="M242.32,-1109.02C144.71,-1090.84 31,-1059.65 31,-1013 31,-1013 31,-1013 31,-434 31,-407.97 50.45,-385.77 69.41,-370.3"/>
<polygon fill="#526674" stroke="#526674" points="71.67,-372.98 77.45,-364.1 67.39,-367.44 71.67,-372.98"/>
<text text-anchor="middle" x="51" y="-715.5" font-family="DejaVu Sans" font-size="10.00">pending</text>
</g>
<!-- center -->
<g id="node18" class="node">
<title>center</title>
<path fill="#eef6fc" stroke="#5182a5" d="M368.07,-1044.7C368.07,-1044.7 79.93,-1013.3 79.93,-1013.3 73.96,-1012.65 73.96,-1011.35 79.93,-1010.7 79.93,-1010.7 368.07,-979.3 368.07,-979.3 374.04,-978.65 385.96,-978.65 391.93,-979.3 391.93,-979.3 680.07,-1010.7 680.07,-1010.7 686.04,-1011.35 686.04,-1012.65 680.07,-1013.3 680.07,-1013.3 391.93,-1044.7 391.93,-1044.7 385.96,-1045.35 374.04,-1045.35 368.07,-1044.7"/>
<text text-anchor="middle" x="380" y="-1015.4" font-family="DejaVu Sans" font-size="12.00">Initial laser centering (scene 2)</text>
<text text-anchor="middle" x="380" y="-1002.4" font-family="DejaVu Sans" font-size="12.00">Side center + rear 0.28 m + yaw; stop; capture A</text>
</g>
<!-- align&#45;&gt;center -->
<g id="edge7" class="edge">
<title>align&#45;&gt;center</title>
<path fill="none" stroke="#526674" d="M380,-1082.82C380,-1074.11 380,-1065.02 380,-1056.4"/>
<polygon fill="#526674" stroke="#526674" points="383.5,-1056.16 380,-1046.16 376.5,-1056.16 383.5,-1056.16"/>
<text text-anchor="middle" x="426.5" y="-1062" font-family="DejaVu Sans" font-size="10.00">complete / scene 1</text>
</g>
<!-- recover -->
<g id="node5" class="node">
<title>recover</title>
<path fill="#eef6fc" stroke="#5182a5" d="M556.15,-467.11C556.15,-467.11 366.85,-436.89 366.85,-436.89 360.92,-435.95 360.92,-434.05 366.85,-433.11 366.85,-433.11 556.15,-402.89 556.15,-402.89 562.08,-401.95 573.92,-401.95 579.85,-402.89 579.85,-402.89 769.15,-433.11 769.15,-433.11 775.08,-434.05 775.08,-435.95 769.15,-436.89 769.15,-436.89 579.85,-467.11 579.85,-467.11 573.92,-468.05 562.08,-468.05 556.15,-467.11"/>
<text text-anchor="middle" x="568" y="-438.4" font-family="DejaVu Sans" font-size="12.00">Heading recovery (scene 2)</text>
<text text-anchor="middle" x="568" y="-425.4" font-family="DejaVu Sans" font-size="12.00">Revoke drifted dwell / rotate only</text>
</g>
<!-- recover&#45;&gt;rotate -->
<g id="edge18" class="edge">
<title>recover&#45;&gt;rotate</title>
<path fill="none" stroke="#526674" d="M401.19,-427.6C302.55,-421.56 188.47,-409.99 144,-388 136.32,-384.2 129.35,-378.24 123.49,-372.02"/>
<polygon fill="#526674" stroke="#526674" points="125.89,-369.44 116.7,-364.15 120.59,-374.01 125.89,-369.44"/>
<text text-anchor="middle" x="185" y="-380" font-family="DejaVu Sans" font-size="10.00">rotation required</text>
</g>
<!-- done -->
<g id="node10" class="node">
<title>done</title>
<path fill="#eef6fc" stroke="#5182a5" d="M625.12,-362.29C625.12,-362.29 523.65,-347.71 523.65,-347.71 517.71,-346.85 517.71,-345.15 523.65,-344.29 523.65,-344.29 625.12,-329.71 625.12,-329.71 631.06,-328.85 642.94,-328.85 648.88,-329.71 648.88,-329.71 750.35,-344.29 750.35,-344.29 756.29,-345.15 756.29,-346.85 750.35,-347.71 750.35,-347.71 648.88,-362.29 648.88,-362.29 642.94,-363.15 631.06,-363.15 625.12,-362.29"/>
<text text-anchor="middle" x="637" y="-342.9" font-family="DejaVu Sans" font-size="12.00">Segment completed?</text>
</g>
<!-- recover&#45;&gt;done -->
<g id="edge19" class="edge">
<title>recover&#45;&gt;done</title>
<path fill="none" stroke="#526674" d="M591.36,-404.55C600.12,-393.5 609.96,-381.1 618.25,-370.65"/>
<polygon fill="#526674" stroke="#526674" points="621.04,-372.75 624.51,-362.74 615.56,-368.4 621.04,-372.75"/>
<text text-anchor="middle" x="634.5" y="-380" font-family="DejaVu Sans" font-size="10.00">continue</text>
</g>
<!-- target -->
<g id="node7" class="node">
<title>target</title>
<path fill="#eef6fc" stroke="#5182a5" d="M538.5,-810C538.5,-810 257.5,-810 257.5,-810 251.5,-810 245.5,-804 245.5,-798 245.5,-798 245.5,-775 245.5,-775 245.5,-769 251.5,-763 257.5,-763 257.5,-763 538.5,-763 538.5,-763 544.5,-763 550.5,-769 550.5,-775 550.5,-775 550.5,-798 550.5,-798 550.5,-804 544.5,-810 538.5,-810"/>
<text text-anchor="middle" x="398" y="-796.4" font-family="DejaVu Sans" font-size="12.00">execute_current_segment()</text>
<text text-anchor="middle" x="398" y="-783.4" font-family="DejaVu Sans" font-size="12.00">Initialize target once</text>
<text text-anchor="middle" x="398" y="-770.4" font-family="DejaVu Sans" font-size="12.00">Scene 2: centered A + wall&#45;rotated route offsets</text>
</g>
<!-- valid -->
<g id="node8" class="node">
<title>valid</title>
<path fill="#eef6fc" stroke="#5182a5" d="M386.26,-733.5C386.26,-733.5 325.35,-720.5 325.35,-720.5 319.48,-719.25 319.48,-716.75 325.35,-715.5 325.35,-715.5 386.26,-702.5 386.26,-702.5 392.13,-701.25 403.87,-701.25 409.74,-702.5 409.74,-702.5 470.65,-715.5 470.65,-715.5 476.52,-716.75 476.52,-719.25 470.65,-720.5 470.65,-720.5 409.74,-733.5 409.74,-733.5 403.87,-734.75 392.13,-734.75 386.26,-733.5"/>
<text text-anchor="middle" x="398" y="-714.9" font-family="DejaVu Sans" font-size="12.00">Target ready?</text>
</g>
<!-- target&#45;&gt;valid -->
<g id="edge12" class="edge">
<title>target&#45;&gt;valid</title>
<path fill="none" stroke="#526674" d="M398,-762.99C398,-757.66 398,-751.92 398,-746.4"/>
<polygon fill="#526674" stroke="#526674" points="401.5,-746.23 398,-736.23 394.5,-746.23 401.5,-746.23"/>
</g>
<!-- valid&#45;&gt;stop -->
<g id="edge13" class="edge">
<title>valid&#45;&gt;stop</title>
<path fill="none" stroke="#526674" d="M341.94,-711.83C301.14,-704.62 253,-687.34 253,-646 253,-646 253,-646 253,-434 253,-306.39 171.92,-238.37 261,-147 279.6,-127.92 1088.57,-97.75 1317.32,-89.59"/>
<polygon fill="#526674" stroke="#526674" points="1317.58,-93.09 1327.45,-89.23 1317.33,-86.09 1317.58,-93.09"/>
<text text-anchor="middle" x="256.5" y="-380" font-family="DejaVu Sans" font-size="10.00">no</text>
</g>
<!-- errors -->
<g id="node9" class="node">
<title>errors</title>
<path fill="#eef6fc" stroke="#5182a5" d="M507,-663C507,-663 347,-663 347,-663 341,-663 335,-657 335,-651 335,-651 335,-639 335,-639 335,-633 341,-627 347,-627 347,-627 507,-627 507,-627 513,-627 519,-633 519,-639 519,-639 519,-651 519,-651 519,-657 513,-663 507,-663"/>
<text text-anchor="middle" x="427" y="-641.9" font-family="DejaVu Sans" font-size="12.00">Read pose; calculate ex / ey</text>
</g>
<!-- valid&#45;&gt;errors -->
<g id="edge14" class="edge">
<title>valid&#45;&gt;errors</title>
<path fill="none" stroke="#526674" d="M404.44,-701.24C407.85,-692.87 412.15,-682.36 416.07,-672.75"/>
<polygon fill="#526674" stroke="#526674" points="419.43,-673.79 419.97,-663.2 412.95,-671.14 419.43,-673.79"/>
<text text-anchor="middle" x="424" y="-679" font-family="DejaVu Sans" font-size="10.00">yes</text>
</g>
<!-- feedback -->
<g id="node20" class="node">
<title>feedback</title>
<path fill="#eef6fc" stroke="#5182a5" d="M556.18,-597.94C556.18,-597.94 309.82,-555.06 309.82,-555.06 303.91,-554.03 303.91,-551.97 309.82,-550.94 309.82,-550.94 556.18,-508.06 556.18,-508.06 562.09,-507.03 573.91,-507.03 579.82,-508.06 579.82,-508.06 826.18,-550.94 826.18,-550.94 832.09,-551.97 832.09,-554.03 826.18,-555.06 826.18,-555.06 579.82,-597.94 579.82,-597.94 573.91,-598.97 562.09,-598.97 556.18,-597.94"/>
<text text-anchor="middle" x="568" y="-562.9" font-family="DejaVu Sans" font-size="12.00">apply_step_feedback()</text>
<text text-anchor="middle" x="568" y="-549.9" font-family="DejaVu Sans" font-size="12.00">Time/path bounds + selected laser validity</text>
<text text-anchor="middle" x="568" y="-536.9" font-family="DejaVu Sans" font-size="12.00">Position / front clearance / side error</text>
</g>
<!-- errors&#45;&gt;feedback -->
<g id="edge15" class="edge">
<title>errors&#45;&gt;feedback</title>
<path fill="none" stroke="#526674" d="M453.85,-626.86C467.67,-618.04 485.16,-606.87 502.28,-595.95"/>
<polygon fill="#526674" stroke="#526674" points="504.63,-598.6 511.18,-590.27 500.87,-592.7 504.63,-598.6"/>
</g>
<!-- dwell -->
<g id="node11" class="node">
<title>dwell</title>
<path fill="#e7f3e6" stroke="#5182a5" d="M724,-291C724,-291 550,-291 550,-291 544,-291 538,-285 538,-279 538,-279 538,-256 538,-256 538,-250 544,-244 550,-244 550,-244 724,-244 724,-244 730,-244 736,-250 736,-256 736,-256 736,-279 736,-279 736,-285 730,-291 724,-291"/>
<text text-anchor="middle" x="637" y="-277.4" font-family="DejaVu Sans" font-size="12.00">handle_completed_segment()</text>
<text text-anchor="middle" x="637" y="-264.4" font-family="DejaVu Sans" font-size="12.00">Stop; wait for motion.dwell</text>
<text text-anchor="middle" x="637" y="-251.4" font-family="DejaVu Sans" font-size="12.00">Return Completed when ready</text>
</g>
<!-- done&#45;&gt;dwell -->
<g id="edge20" class="edge">
<title>done&#45;&gt;dwell</title>
<path fill="none" stroke="#526674" d="M637,-327.64C637,-319.76 637,-310.18 637,-301.04"/>
<polygon fill="#526674" stroke="#526674" points="640.5,-301.02 637,-291.02 633.5,-301.02 640.5,-301.02"/>
<text text-anchor="middle" x="646" y="-307" font-family="DejaVu Sans" font-size="10.00">yes</text>
</g>
<!-- near -->
<g id="node12" class="node">
<title>near</title>
<path fill="#eef6fc" stroke="#5182a5" d="M887.1,-283.97C887.1,-283.97 770.58,-269.03 770.58,-269.03 764.63,-268.26 764.63,-266.74 770.58,-265.97 770.58,-265.97 887.1,-251.03 887.1,-251.03 893.05,-250.26 904.95,-250.26 910.9,-251.03 910.9,-251.03 1027.42,-265.97 1027.42,-265.97 1033.37,-266.74 1033.37,-268.26 1027.42,-269.03 1027.42,-269.03 910.9,-283.97 910.9,-283.97 904.95,-284.74 893.05,-284.74 887.1,-283.97"/>
<text text-anchor="middle" x="899" y="-264.4" font-family="DejaVu Sans" font-size="12.00">Position error &lt; 0.01 m?</text>
</g>
<!-- done&#45;&gt;near -->
<g id="edge23" class="edge">
<title>done&#45;&gt;near</title>
<path fill="none" stroke="#526674" d="M676.22,-333.55C722.13,-320.14 798.25,-297.92 848.52,-283.24"/>
<polygon fill="#526674" stroke="#526674" points="849.59,-286.57 858.21,-280.41 847.63,-279.85 849.59,-286.57"/>
<text text-anchor="middle" x="781.5" y="-307" font-family="DejaVu Sans" font-size="10.00">no</text>
</g>
<!-- dwell&#45;&gt;stop -->
<g id="edge22" class="edge">
<title>dwell&#45;&gt;stop</title>
<path fill="none" stroke="#526674" d="M633.82,-243.73C631.43,-216.39 632.26,-171.21 659,-147 707.35,-103.24 1153.41,-91.29 1317.12,-88.36"/>
<polygon fill="#526674" stroke="#526674" points="1317.55,-91.86 1327.48,-88.18 1317.43,-84.86 1317.55,-91.86"/>
<text text-anchor="middle" x="677.5" y="-174.5" font-family="DejaVu Sans" font-size="10.00">waiting</text>
</g>
<!-- advance -->
<g id="node21" class="node">
<title>advance</title>
<path fill="#eef6fc" stroke="#5182a5" d="M592,-195C592,-195 284,-195 284,-195 278,-195 272,-189 272,-183 272,-183 272,-171 272,-171 272,-165 278,-159 284,-159 284,-159 592,-159 592,-159 598,-159 604,-165 604,-171 604,-171 604,-183 604,-183 604,-189 598,-195 592,-195"/>
<text text-anchor="middle" x="438" y="-180.4" font-family="DejaVu Sans" font-size="12.00">on_timer(): Completed &#45;&gt; advance_route()</text>
<text text-anchor="middle" x="438" y="-167.4" font-family="DejaVu Sans" font-size="12.00">Record endpoint; manual wait, next tick or shutdown</text>
</g>
<!-- dwell&#45;&gt;advance -->
<g id="edge21" class="edge">
<title>dwell&#45;&gt;advance</title>
<path fill="none" stroke="#526674" d="M586.27,-243.94C555.41,-230.21 516.23,-212.79 485.9,-199.3"/>
<polygon fill="#526674" stroke="#526674" points="486.94,-195.94 476.38,-195.07 484.1,-202.33 486.94,-195.94"/>
<text text-anchor="middle" x="575.5" y="-223" font-family="DejaVu Sans" font-size="10.00">finished</text>
</g>
<!-- settle -->
<g id="node13" class="node">
<title>settle</title>
<path fill="#e7f3e6" stroke="#5182a5" d="M1331,-207C1331,-207 1125,-207 1125,-207 1119,-207 1113,-201 1113,-195 1113,-195 1113,-159 1113,-159 1113,-153 1119,-147 1125,-147 1125,-147 1331,-147 1331,-147 1337,-147 1343,-153 1343,-159 1343,-159 1343,-195 1343,-195 1343,-201 1337,-207 1331,-207"/>
<text text-anchor="middle" x="1228" y="-193.4" font-family="DejaVu Sans" font-size="12.00">Stop; reset PID; check_completion()</text>
<text text-anchor="middle" x="1228" y="-180.4" font-family="DejaVu Sans" font-size="12.00">Verify continuous standstill</text>
<text text-anchor="middle" x="1228" y="-167.4" font-family="DejaVu Sans" font-size="12.00">Route: mark completed for dwell</text>
<text text-anchor="middle" x="1228" y="-154.4" font-family="DejaVu Sans" font-size="12.00">End this tick</text>
</g>
<!-- near&#45;&gt;settle -->
<g id="edge24" class="edge">
<title>near&#45;&gt;settle</title>
<path fill="none" stroke="#526674" d="M942.01,-254.93C984.58,-243.48 1051.67,-225.43 1110.17,-209.69"/>
<polygon fill="#526674" stroke="#526674" points="1111.11,-213.07 1119.86,-207.09 1109.29,-206.31 1111.11,-213.07"/>
<text text-anchor="middle" x="1072" y="-223" font-family="DejaVu Sans" font-size="10.00">yes</text>
</g>
<!-- timing -->
<g id="node14" class="node">
<title>timing</title>
<path fill="#eef6fc" stroke="#5182a5" d="M887.05,-193.88C887.05,-193.88 719.4,-178.12 719.4,-178.12 713.42,-177.56 713.42,-176.44 719.4,-175.88 719.4,-175.88 887.05,-160.12 887.05,-160.12 893.03,-159.56 904.97,-159.56 910.95,-160.12 910.95,-160.12 1078.6,-175.88 1078.6,-175.88 1084.58,-176.44 1084.58,-177.56 1078.6,-178.12 1078.6,-178.12 910.95,-193.88 910.95,-193.88 904.97,-194.44 893.03,-194.44 887.05,-193.88"/>
<text text-anchor="middle" x="899" y="-173.9" font-family="DejaVu Sans" font-size="12.00">Clear settling; handle_pid_timing()</text>
</g>
<!-- near&#45;&gt;timing -->
<g id="edge25" class="edge">
<title>near&#45;&gt;timing</title>
<path fill="none" stroke="#526674" d="M899,-249.44C899,-236.95 899,-219.74 899,-205.35"/>
<polygon fill="#526674" stroke="#526674" points="902.5,-205.01 899,-195.01 895.5,-205.01 902.5,-205.01"/>
<text text-anchor="middle" x="905.5" y="-223" font-family="DejaVu Sans" font-size="10.00">no</text>
</g>
<!-- timing&#45;&gt;stop -->
<g id="edge26" class="edge">
<title>timing&#45;&gt;stop</title>
<path fill="none" stroke="#526674" d="M960.02,-164.7C1052.21,-147.63 1225.89,-115.48 1317.29,-98.55"/>
<polygon fill="#526674" stroke="#526674" points="1318.02,-101.98 1327.22,-96.72 1316.75,-95.1 1318.02,-101.98"/>
<text text-anchor="middle" x="1228.5" y="-126" font-family="DejaVu Sans" font-size="10.00">initialize / invalid dt</text>
</g>
<!-- compute -->
<g id="node15" class="node">
<title>compute</title>
<path fill="#eef6fc" stroke="#5182a5" d="M733,-110C733,-110 455,-110 455,-110 449,-110 443,-104 443,-98 443,-98 443,-75 443,-75 443,-69 449,-63 455,-63 455,-63 733,-63 733,-63 739,-63 745,-69 745,-75 745,-75 745,-98 745,-98 745,-104 739,-110 733,-110"/>
<text text-anchor="middle" x="594" y="-96.4" font-family="DejaVu Sans" font-size="12.00">compute_and_publish_command(data)</text>
<text text-anchor="middle" x="594" y="-83.4" font-family="DejaVu Sans" font-size="12.00">PID &#45;&gt; speed limit &#45;&gt; acceleration limit</text>
<text text-anchor="middle" x="594" y="-70.4" font-family="DejaVu Sans" font-size="12.00">&#45;&gt; body conversion + yaw correction &#45;&gt; publish</text>
</g>
<!-- timing&#45;&gt;compute -->
<g id="edge27" class="edge">
<title>timing&#45;&gt;compute</title>
<path fill="none" stroke="#526674" d="M854.65,-163.13C809.44,-150.01 738.09,-129.31 681.46,-112.88"/>
<polygon fill="#526674" stroke="#526674" points="682.37,-109.5 671.79,-110.07 680.42,-116.22 682.37,-109.5"/>
<text text-anchor="middle" x="764.5" y="-126" font-family="DejaVu Sans" font-size="10.00">valid dt</text>
</g>
<!-- log -->
<g id="node16" class="node">
<title>log</title>
<path fill="#eef6fc" stroke="#5182a5" d="M690,-36C690,-36 498,-36 498,-36 492,-36 486,-30 486,-24 486,-24 486,-12 486,-12 486,-6 492,0 498,0 498,0 690,0 690,0 696,0 702,-6 702,-12 702,-12 702,-24 702,-24 702,-30 696,-36 690,-36"/>
<text text-anchor="middle" x="594" y="-21.4" font-family="DejaVu Sans" font-size="12.00">log_control_state(data) when due</text>
<text text-anchor="middle" x="594" y="-8.4" font-family="DejaVu Sans" font-size="12.00">End this tick</text>
</g>
<!-- compute&#45;&gt;log -->
<g id="edge28" class="edge">
<title>compute&#45;&gt;log</title>
<path fill="none" stroke="#526674" d="M594,-62.99C594,-57.66 594,-51.92 594,-46.4"/>
<polygon fill="#526674" stroke="#526674" points="597.5,-46.23 594,-36.23 590.5,-46.23 597.5,-46.23"/>
</g>
<!-- scan&#45;&gt;stop -->
<g id="edge4" class="edge">
<title>scan&#45;&gt;stop</title>
<path fill="none" stroke="#526674" d="M1408.34,-1227.62C1457.53,-1211.31 1508,-1182.11 1508,-1131 1508,-1131 1508,-1131 1508,-176 1508,-138.62 1470.92,-115.96 1436.22,-102.95"/>
<polygon fill="#526674" stroke="#526674" points="1437.12,-99.55 1426.53,-99.53 1434.79,-106.15 1437.12,-99.55"/>
<text text-anchor="middle" x="1527" y="-642.5" font-family="DejaVu Sans" font-size="10.00">blocked</text>
</g>
<!-- scan&#45;&gt;align -->
<g id="edge5" class="edge">
<title>scan&#45;&gt;align</title>
<path fill="none" stroke="#526674" d="M1194.11,-1231.89C1025.79,-1211.03 722.02,-1173.39 536.92,-1150.45"/>
<polygon fill="#526674" stroke="#526674" points="537.18,-1146.95 526.82,-1149.2 536.32,-1153.9 537.18,-1146.95"/>
<text text-anchor="middle" x="1017" y="-1193" font-family="DejaVu Sans" font-size="10.00">ready / already initialized / scene 1</text>
</g>
<!-- center&#45;&gt;rotate -->
<g id="edge8" class="edge">
<title>center&#45;&gt;rotate</title>
<path fill="none" stroke="#526674" d="M212.5,-996.15C155.08,-981.03 105,-951.61 105,-895 105,-895 105,-895 105,-434 105,-414.05 105,-391.53 105,-374.4"/>
<polygon fill="#526674" stroke="#526674" points="108.5,-374 105,-364 101.5,-374 108.5,-374"/>
<text text-anchor="middle" x="125" y="-679" font-family="DejaVu Sans" font-size="10.00">pending</text>
</g>
<!-- idle -->
<g id="node19" class="node">
<title>idle</title>
<path fill="#eef6fc" stroke="#5182a5" d="M386.25,-938.58C386.25,-938.58 181.75,-896.42 181.75,-896.42 175.88,-895.21 175.88,-892.79 181.75,-891.58 181.75,-891.58 386.25,-849.42 386.25,-849.42 392.12,-848.21 403.88,-848.21 409.75,-849.42 409.75,-849.42 614.25,-891.58 614.25,-891.58 620.12,-892.79 620.12,-895.21 614.25,-896.42 614.25,-896.42 409.75,-938.58 409.75,-938.58 403.88,-939.79 392.12,-939.79 386.25,-938.58"/>
<text text-anchor="middle" x="398" y="-903.9" font-family="DejaVu Sans" font-size="12.00">Manual WAITING?</text>
<text text-anchor="middle" x="398" y="-890.9" font-family="DejaVu Sans" font-size="12.00">Hold yaw, zero translation</text>
<text text-anchor="middle" x="398" y="-877.9" font-family="DejaVu Sans" font-size="12.00">Accept one validated step / resume</text>
</g>
<!-- center&#45;&gt;idle -->
<g id="edge9" class="edge">
<title>center&#45;&gt;idle</title>
<path fill="none" stroke="#526674" d="M385.06,-978.38C386.44,-969.53 387.96,-959.69 389.47,-949.97"/>
<polygon fill="#526674" stroke="#526674" points="392.95,-950.34 391.03,-939.93 386.04,-949.27 392.95,-950.34"/>
<text text-anchor="middle" x="435.5" y="-957" font-family="DejaVu Sans" font-size="10.00">complete / scene 1</text>
</g>
<!-- idle&#45;&gt;stop -->
<g id="edge10" class="edge">
<title>idle&#45;&gt;stop</title>
<path fill="none" stroke="#526674" d="M615.47,-891.81C915.28,-887.23 1419,-867.61 1419,-787.5 1419,-787.5 1419,-787.5 1419,-552 1419,-520.89 1418.37,-513.1 1419,-482 1419.89,-438.2 1423,-427.31 1423,-383.5 1423,-383.5 1423,-383.5 1423,-176 1423,-152.85 1410.45,-129.74 1398.47,-112.95"/>
<polygon fill="#526674" stroke="#526674" points="1401.13,-110.66 1392.32,-104.77 1395.53,-114.87 1401.13,-110.66"/>
<text text-anchor="middle" x="1455" y="-485" font-family="DejaVu Sans" font-size="10.00">waiting / finish</text>
</g>
<!-- idle&#45;&gt;target -->
<g id="edge11" class="edge">
<title>idle&#45;&gt;target</title>
<path fill="none" stroke="#526674" d="M398,-846.73C398,-837.77 398,-828.57 398,-820.16"/>
<polygon fill="#526674" stroke="#526674" points="401.5,-820.02 398,-810.02 394.5,-820.02 401.5,-820.02"/>
<text text-anchor="middle" x="413.5" y="-826" font-family="DejaVu Sans" font-size="10.00">active</text>
</g>
<!-- feedback&#45;&gt;stop -->
<g id="edge16" class="edge">
<title>feedback&#45;&gt;stop</title>
<path fill="none" stroke="#526674" d="M776.07,-542.2C1015.77,-528.06 1377,-496.68 1377,-436 1377,-436 1377,-436 1377,-176 1377,-155.51 1377,-132.36 1377,-114.88"/>
<polygon fill="#526674" stroke="#526674" points="1380.5,-114.8 1377,-104.8 1373.5,-114.8 1380.5,-114.8"/>
<text text-anchor="middle" x="1388.5" y="-307" font-family="DejaVu Sans" font-size="10.00">fault</text>
</g>
<!-- feedback&#45;&gt;recover -->
<g id="edge17" class="edge">
<title>feedback&#45;&gt;recover</title>
<path fill="none" stroke="#526674" d="M568,-505.82C568,-497.11 568,-488.02 568,-479.4"/>
<polygon fill="#526674" stroke="#526674" points="571.5,-479.16 568,-469.16 564.5,-479.16 571.5,-479.16"/>
<text text-anchor="middle" x="580.5" y="-485" font-family="DejaVu Sans" font-size="10.00">valid</text>
</g>
</g>
</svg>
